<svg width="158" height="28" viewBox="0 0 158 28" fill="none" xmlns="http://www.w3.org/2000/svg">
<path d="M35.7552 18.5586H43.9232V23H30.3646V6.19531H43.6771V10.6367H35.7552V12.4414H41.7552V16.5195H35.7552V18.5586ZM46.6771 6.19531H54.5873C56.5404 6.19531 58.1068 6.77344 59.2865 7.92969C60.474 9.07812 61.0677 10.543 61.0677 12.3242C61.0677 14.0977 60.474 15.5625 59.2865 16.7188C58.1068 17.8672 56.5404 18.4414 54.5873 18.4414H52.0677V23H46.6771V6.19531ZM54.2357 11H52.0677V13.6367H54.2357C54.6498 13.6367 54.9935 13.5117 55.267 13.2617C55.5404 13.0039 55.6771 12.6914 55.6771 12.3242C55.6771 11.957 55.5404 11.6445 55.267 11.3867C54.9935 11.1289 54.6498 11 54.2357 11ZM68.7552 6.19531V11.4805C68.7552 12.1367 68.9427 12.6602 69.3177 13.0508C69.6927 13.4414 70.1849 13.6367 70.7943 13.6367C71.1459 13.6367 71.5013 13.5898 71.8607 13.4961C72.2201 13.4023 72.4974 13.3047 72.6927 13.2031L72.9506 13.0391V6.19531H78.3529V23H72.9506V17.8438C72.0677 18.2422 71.0287 18.4414 69.8334 18.4414C67.8334 18.4414 66.2513 17.832 65.0873 16.6133C63.931 15.3867 63.3529 13.6758 63.3529 11.4805V6.19531H68.7552ZM102.458 6.19531V23H97.0677V11H94.1849C94.1849 12.9219 94.0795 14.6094 93.8685 16.0625C93.6654 17.5156 93.3802 18.7109 93.0131 19.6484C92.6537 20.5859 92.2006 21.3438 91.6537 21.9219C91.1146 22.5 90.5365 22.9023 89.9193 23.1289C89.3021 23.3633 88.6029 23.4805 87.8217 23.4805C87.3607 23.4805 86.9193 23.4375 86.4974 23.3516C86.0834 23.2734 85.7826 23.1953 85.5951 23.1172L85.3021 23V18.0781C85.6224 18.1562 85.9427 18.1953 86.2631 18.1953C86.8412 18.1953 87.306 18.043 87.6576 17.7383C88.0092 17.4258 88.3021 16.7695 88.5365 15.7695C88.7787 14.7695 88.8998 13.3867 88.8998 11.6211V6.19531H102.458ZM111.986 5.71484C114.658 5.71484 116.904 6.58984 118.724 8.33984C120.552 10.082 121.466 12.168 121.466 14.5977C121.466 17.0273 120.552 19.1172 118.724 20.8672C116.904 22.6094 114.658 23.4805 111.986 23.4805C111.056 23.4805 110.169 23.3633 109.326 23.1289C108.482 22.9023 107.786 22.625 107.24 22.2969C106.693 21.9688 106.212 21.6406 105.798 21.3125C105.384 20.9844 105.079 20.6992 104.884 20.457L104.626 20.1172L107.673 16.8828C107.72 16.9297 107.783 16.9961 107.861 17.082C107.939 17.168 108.115 17.3242 108.388 17.5508C108.661 17.7773 108.951 17.9766 109.255 18.1484C109.56 18.3125 109.947 18.4648 110.415 18.6055C110.892 18.7383 111.376 18.8047 111.869 18.8047C112.876 18.8047 113.704 18.5742 114.353 18.1133C115.001 17.6445 115.454 17.1523 115.712 16.6367H109.829V12.5586H115.712C115.454 12.043 115.001 11.5547 114.353 11.0938C113.704 10.6328 112.876 10.4023 111.869 10.4023C111.408 10.4023 110.947 10.4688 110.486 10.6016C110.033 10.7266 109.65 10.8867 109.337 11.082C109.025 11.2695 108.747 11.4609 108.505 11.6562C108.271 11.8438 108.087 12 107.954 12.125L107.79 12.3242L104.673 9.07812C104.736 8.98438 104.829 8.86328 104.954 8.71484C105.087 8.55859 105.38 8.28906 105.833 7.90625C106.294 7.52344 106.783 7.18359 107.298 6.88672C107.822 6.58984 108.505 6.32031 109.349 6.07812C110.193 5.83594 111.072 5.71484 111.986 5.71484ZM122.298 6.19531H136.583V11.1172H132.142V23H126.74V11.1172H122.298V6.19531ZM138.857 6.19531H144.247V14.3633L150.611 6.19531H155.169V23H149.767V14.8438L143.415 23H138.857V6.19531Z" fill="#353DF7"/>
<path d="M24.3227 6C24.9165 11.3412 25.7573 14.2287 28 19.2222C27.2319 20.5972 26.9482 21.4169 26.8053 23H21.3173H16.7253H11.0133H6.42133H0.933333C0.943864 21.4723 0.667633 20.6548 0 19.2222C2.62997 14.4567 3.56503 11.5709 4.256 6H9.87093L14.5227 16.3889H12.656L17.8677 6H24.3227Z" fill="#353DF7"/>
<path d="M6.12262 17.3333L7.98929 14.5L9.85595 17.3333L7.98929 20.1667L6.12262 17.3333Z" fill="#FFC700"/>
<path d="M17.3226 17.3333L19.1893 14.5L21.056 17.3333L19.1893 20.1667L17.3226 17.3333Z" fill="#FFC700"/>
<path d="M13.5893 19.2222L15.4559 21.1111L13.5893 21.1111L11.7226 21.1111L13.5893 19.2222Z" fill="#353DF7"/>
</svg>
