<svg width="33" height="32" viewBox="0 0 33 32" fill="none" xmlns="http://www.w3.org/2000/svg">
<g clip-path="url(#clip0_94_259)">
<path d="M21.2266 18.6667H20.1733L19.7999 18.3067C21.1066 16.7867 21.8933 14.8133 21.8933 12.6667C21.8933 7.88 18.0133 4 13.2266 4C8.43994 4 4.55994 7.88 4.55994 12.6667C4.55994 17.4533 8.43994 21.3333 13.2266 21.3333C15.3733 21.3333 17.3466 20.5467 18.8666 19.24L19.2266 19.6133V20.6667L25.8933 27.32L27.8799 25.3333L21.2266 18.6667ZM13.2266 18.6667C9.9066 18.6667 7.2266 15.9867 7.2266 12.6667C7.2266 9.34667 9.9066 6.66667 13.2266 6.66667C16.5466 6.66667 19.2266 9.34667 19.2266 12.6667C19.2266 15.9867 16.5466 18.6667 13.2266 18.6667Z" fill="black" fill-opacity="0.8"/>
</g>
<defs>
<clipPath id="clip0_94_259">
<rect width="32" height="32" fill="white" transform="translate(0.559937)"/>
</clipPath>
</defs>
</svg>
